PathFileType	4	(X/Y/Z)	/Users/itak/Documents/Research/Walk-IL/dataset/trc/00033_00004.trc
DataRate	CameraRate	NumFrames	NumMarkers	Units	OrigDataRate	OrigDataStartFrame	OrigNumFrames
100.000000	100.000000	4	53	mm	100.000000	725	829
Frame#	Time	RPSI			LPSI			L3			STRN			T10			C7			CLAV			RBAK			LBAK			LSHO			LUPA			LAEL			LAOL			LWTS			LWPS			LFRA			LIFD			LHPS			LHTS			RSHO			RUPA			RAEL			RAOL			RWTS			RWPS			RFRA			RIFD			RHTS			RHPS			RBHD			LFHD			RFHD			LBHD			LHIP			RHIP			RASI			LASI			LKNE			LTHI			LANK			LTIP			LTOE			LMT1			LMT5			LHEE			RKNE			RTHI			RANK			RTIP			RTOE			RMT1			RMT5			RHEE			
		X1	Y1	Z1	X2	Y2	Z2	X3	Y3	Z3	X4	Y4	Z4	X5	Y5	Z5	X6	Y6	Z6	X7	Y7	Z7	X8	Y8	Z8	X9	Y9	Z9	X10	Y10	Z10	X11	Y11	Z11	X12	Y12	Z12	X13	Y13	Z13	X14	Y14	Z14	X15	Y15	Z15	X16	Y16	Z16	X17	Y17	Z17	X18	Y18	Z18	X19	Y19	Z19	X20	Y20	Z20	X21	Y21	Z21	X22	Y22	Z22	X23	Y23	Z23	X24	Y24	Z24	X25	Y25	Z25	X26	Y26	Z26	X27	Y27	Z27	X28	Y28	Z28	X29	Y29	Z29	X30	Y30	Z30	X31	Y31	Z31	X32	Y32	Z32	X33	Y33	Z33	X34	Y34	Z34	X35	Y35	Z35	X36	Y36	Z36	X37	Y37	Z37	X38	Y38	Z38	X39	Y39	Z39	X40	Y40	Z40	X41	Y41	Z41	X42	Y42	Z42	X43	Y43	Z43	X44	Y44	Z44	X45	Y45	Z45	X46	Y46	Z46	X47	Y47	Z47	X48	Y48	Z48	X49	Y49	Z49	X50	Y50	Z50	X51	Y51	Z51	X52	Y52	Z52	X53	Y53	Z53	

726	7.25	494.4146728515625	1082.271850585938	914.9451904296875	525.2324829101562	1065.796264648438	1075.215087890625	517.9762573242188	1133.275146484375	1008.695983886719	297.6519165039062	1324.136962890625	1037.599731445312	545.5126953125	1276.702880859375	1022.6240234375	496.0794067382812	1543.449096679688	1052.78271484375	339.0321655273438	1449.726318359375	1045.8857421875	549.1409912109375	1410.961059570312	964.0462036132812	517.5020141601562	1498.225341796875	1147.01171875	418.1202392578125	1501.637451171875	1222.859252929688	452.5683898925781	1377.21728515625	1299.63330078125	456.6810302734375	1161.754638671875	1328.594360351562	509.3798522949219	1147.157348632812	1237.820068359375	344.8983459472656	919.3377075195312	1271.155029296875	419.0651245117188	896.9364013671875	1314.898193359375	434.7529296875	1046.996459960938	1335.484008789062	300.7467651367188	737.8739013671875	1250.287231445312	376.446044921875	811.2272338867188	1312.9267578125	313.8778381347656	828.4180297851562	1282.136108398438	417.9118347167969	1535.521484375	879.3305053710938	434.8447875976562	1471.095336914062	805.42626953125	493.6925659179688	1210.4794921875	764.7808227539062	488.6834716796875	1176.099975585938	858.0887451171875	374.6569519042969	944.500732421875	768.349365234375	442.8385009765625	935.9244384765625	706.74658203125	485.7866516113281	1134.835815429688	742.2658081054688	363.5643310546875	759.2410278320312	781.5032348632812	346.4360046386719	835.5864868164062	749.9301147460938	405.2277221679688	832.6106567382812	702.4204711914062	427.5091857910156	1724.718627929688	1119.455688476562	264.6273193359375	1730.151611328125	974.4557495117188	252.3681640625	1732.468994140625	1072.470336914062	439.1258239746094	1718.372802734375	975.7289428710938	445.7232666015625	957.8209838867188	1191.077758789062	361.7088623046875	972.4505004882812	826.1890258789062	276.6897583007812	1004.829284667969	918.302978515625	321.1484985351562	1006.412414550781	1149.63037109375	341.4468078613281	524.1220703125	1142.662353515625	388.6700439453125	654.9723510742188	1177.80615234375	414.8764038085938	37.15309143066406	1116.147216796875	405.4378662109375	282.42529296875	1143.54638671875	187.6445007324219	40.23186492919922	1072.776977539062	245.5733337402344	49.10142517089844	1051.355224609375	294.9102172851562	35.59143447875977	1149.287841796875	477.6611022949219	44.81245040893555	1057.569946289062	297.2159423828125	534.208740234375	861.51513671875	322.6476745605469	808.3804321289062	828.2508544921875	491.9115600585938	69.38169860839844	845.6760864257812	335.9197387695312	409.6673889160156	852.9859619140625	270.5150146484375	53.60185623168945	917.9974975585938	337.9527893066406	58.80080795288086	938.8072509765625	342.6306457519531	52.52788925170898	843.57275390625	551.9085693359375	75.25789642333984	883.5986328125	
727	7.26	493.0525512695312	1082.377685546875	916.0394897460938	523.8237915039062	1065.875122070312	1076.311401367188	516.5905151367188	1133.397338867188	1009.848999023438	296.1117858886719	1324.200561523438	1038.699584960938	544.0614013671875	1276.824829101562	1024.000122070312	494.5592041015625	1543.520629882812	1054.410888671875	337.4481201171875	1449.803588867188	1047.116577148438	547.7196655273438	1411.127563476562	965.5803833007812	515.7671508789062	1498.2138671875	1148.643920898438	416.24658203125	1501.534790039062	1224.338989257812	450.473388671875	1377.076049804688	1301.050048828125	454.512451171875	1161.552612304688	1329.801635742188	507.4546203613281	1147.090087890625	1239.149291992188	343.2358703613281	918.970703125	1271.725952148438	417.2954406738281	896.6810302734375	1315.725341796875	432.69091796875	1046.753295898438	1336.490356445312	299.4905395507812	737.467529296875	1250.408203125	374.8233947753906	810.8816528320312	1313.492553710938	312.3601989746094	827.9978637695312	1282.498413085938	416.6519775390625	1535.79296875	880.8197021484375	433.6146240234375	1471.383544921875	806.8897094726562	492.0105285644531	1210.611450195312	766.1790771484375	487.103515625	1176.283081054688	859.5243530273438	371.5044860839844	945.30419921875	770.2344970703125	439.515625	936.1990356445312	708.531982421875	483.7702026367188	1134.891235351562	743.7237548828125	359.1471557617188	760.14453125	783.6318969726562	342.5104064941406	836.5413818359375	752.0132446289062	401.1838073730469	833.1329956054688	704.392333984375	426.4217224121094	1724.594604492188	1121.088500976562	263.7616271972656	1730.709106445312	975.8613891601562	251.4043426513672	1733.044189453125	1073.897094726562	438.1966552734375	1718.268798828125	977.3703002929688	444.3341674804688	957.8887329101562	1192.078735351562	360.3012390136719	972.5842895507812	827.1691284179688	275.3539123535156	1004.964660644531	919.2686157226562	319.8283996582031	1006.327758789062	1150.595581054688	341.6406555175781	523.9714965820312	1143.366455078125	388.4057312011719	654.9660034179688	1178.474243164062	414.9162902832031	37.07629013061523	1116.223388671875	405.7034606933594	282.3795776367188	1143.915283203125	187.6325988769531	40.23503112792969	1072.807983398438	245.5978240966797	49.17109298706055	1051.456420898438	294.9893493652344	35.51214981079102	1149.433227539062	477.6031799316406	44.66009521484375	1057.612426757812	296.5845336914062	534.3557739257812	863.0543212890625	321.5485229492188	808.3865356445312	829.1791381835938	483.154052734375	66.45725250244141	849.0341796875	333.6059265136719	409.6382751464844	854.901611328125	261.3206176757812	54.37844467163086	921.1493530273438	328.8248901367188	58.72569274902344	941.9972534179688	333.5843811035156	51.93291091918945	846.821533203125	543.11865234375	71.59237670898438	887.0167236328125	
728	7.27	491.700439453125	1082.46142578125	917.0673828125	522.457275390625	1065.942016601562	1077.340087890625	515.2240600585938	1133.497802734375	1010.926635742188	294.6329956054688	1324.2734375	1039.757202148438	542.6592407226562	1276.925537109375	1025.28076171875	493.100341796875	1543.576171875	1055.946899414062	335.9143981933594	1449.877319335938	1048.288452148438	546.335693359375	1411.274291992188	967.0139770507812	514.1075439453125	1498.181762695312	1150.175903320312	414.480224609375	1501.429931640625	1225.740478515625	448.4887390136719	1376.914794921875	1302.378051757812	452.4391479492188	1161.331909179688	1330.9072265625	505.5986938476562	1147.001098632812	1240.356323242188	341.6529541015625	918.5941772460938	1272.25537109375	415.6188659667969	896.4137573242188	1316.472290039062	430.7303771972656	1046.498168945312	1337.408325195312	298.2763061523438	737.0543212890625	1250.530395507812	373.3041687011719	810.5313720703125	1314.009521484375	310.9288024902344	827.5507202148438	1282.836059570312	415.4134826660156	1536.059204101562	882.2411499023438	432.379150390625	1471.675659179688	808.26904296875	490.3118896484375	1210.746826171875	767.4590454101562	485.5585632324219	1176.467407226562	860.8499145507812	368.2846984863281	946.1344604492188	772.065185546875	436.1007690429688	936.4985961914062	710.2312622070312	481.739013671875	1134.947631835938	745.0745849609375	354.676025390625	761.0941162109375	785.7460327148438	338.5147094726562	837.5416259765625	754.0686645507812	397.0402221679688	833.6888427734375	706.3085327148438	425.3665771484375	1724.459838867188	1122.659545898438	262.9311828613281	1731.242919921875	977.2176513671875	250.4901275634766	1733.571533203125	1075.295288085938	437.3004760742188	1718.169067382812	978.956298828125	443.0177612304688	957.9575805664062	1193.036499023438	358.9000244140625	972.67919921875	828.1217041015625	274.0295715332031	1005.082946777344	920.1948852539062	318.5406188964844	1006.245422363281	1151.508056640625	341.8370971679688	523.8160400390625	1144.058471679688	388.1913452148438	654.9523315429688	1179.125366210938	414.9613952636719	36.9935188293457	1116.294067382812	405.9719543457031	282.3327026367188	1144.27197265625	187.6188201904297	40.23787689208984	1072.83349609375	245.6210327148438	49.24274826049805	1051.554565429688	295.0584106445312	35.43673706054688	1149.575317382812	477.5400085449219	44.51522827148438	1057.64501953125	295.9635009765625	534.5055541992188	864.6390991210938	320.4258422851562	808.3642578125	830.1473999023438	474.9288024902344	63.90497970581055	852.1815185546875	331.3987426757812	409.6576232910156	856.7669067382812	252.6663513183594	55.11481857299805	923.8441162109375	320.1969604492188	58.67956924438477	944.8253784179688	325.1295776367188	51.52803421020508	849.7048950195312	534.8118896484375	68.33740997314453	890.3053588867188	
729	7.28	490.3603515625	1082.526245117188	918.0337524414062	521.1341552734375	1065.997802734375	1078.306518554688	513.87646484375	1133.57470703125	1011.9326171875	293.21533203125	1324.357421875	1040.772827148438	541.3048095703125	1277.0029296875	1026.466552734375	491.7020568847656	1543.61279296875	1057.389404296875	334.4306640625	1449.940307617188	1049.40869140625	544.9893188476562	1411.39892578125	968.3485717773438	512.5241088867188	1498.1279296875	1151.60546875	412.8273620605469	1501.32373046875	1227.066772460938	446.6228332519531	1376.730346679688	1303.6181640625	450.4696350097656	1161.091430664062	1331.913696289062	503.8212585449219	1146.886352539062	1241.442749023438	340.14208984375	918.2119140625	1272.74462890625	414.0333557128906	896.134033203125	1317.140502929688	428.87646484375	1046.226318359375	1338.2412109375	297.1179809570312	736.632568359375	1250.658447265625	371.8809814453125	810.1769409179688	1314.478149414062	309.5678405761719	827.0924072265625	1283.1484375	414.1908569335938	1536.316772460938	883.5931396484375	431.1384887695312	1471.967651367188	809.5645141601562	488.6067504882812	1210.882690429688	768.6224975585938	484.0436096191406	1176.649169921875	862.0628051757812	365.0068054199219	946.9886474609375	773.835693359375	432.6028747558594	936.8189086914062	711.8435668945312	479.7018737792969	1135.002807617188	746.3172607421875	350.138671875	762.0878295898438	787.823974609375	334.45068359375	838.5910034179688	756.0813598632812	392.8079528808594	834.2760009765625	708.163818359375	424.3467102050781	1724.315795898438	1124.168701171875	262.1381530761719	1731.750610351562	978.5313720703125	249.6211242675781	1734.050170898438	1076.658203125	436.4427795410156	1718.0751953125	980.488037109375	441.7625732421875	958.0222778320312	1193.956176757812	357.526123046875	972.73291015625	829.0509643554688	272.7210693359375	1005.184326171875	921.0872802734375	317.2611694335938	1006.170654296875	1152.371215820312	342.0276794433594	523.65087890625	1144.749267578125	388.0074157714844	654.9242553710938	1179.763061523438	415.0099182128906	36.90903854370117	1116.355346679688	406.2362060546875	282.2879333496094	1144.610717773438	187.6035461425781	40.23972702026367	1072.852783203125	245.6437225341797	49.31194686889648	1051.647338867188	295.1171264648438	35.36707305908203	1149.709350585938	477.4794921875	44.38529205322266	1057.669555664062	295.3215942382812	534.6591796875	866.2578735351562	319.2781982421875	808.3255004882812	831.1666259765625	467.2388000488281	61.69302368164062	855.1309814453125	329.2814331054688	409.71533203125	858.5814819335938	244.5494384765625	55.80874252319336	926.140625	312.0746154785156	58.65986251831055	947.34619140625	317.2648315429688	51.28838729858398	852.2730712890625	527.0121459960938	65.46369171142578	893.4664916992188	
